<svg width="40" height="40" viewBox="0 0 40 40" fill="none" xmlns="http://www.w3.org/2000/svg">
<rect width="40" height="40" rx="20" fill="black" fill-opacity="0.1"/>
<rect x="0.5" y="0.5" width="39" height="39" rx="19.5" stroke="white" stroke-opacity="0.24"/>
<path d="M29.1924 16.0673L26.8565 18.4032C26.3846 23.8735 21.7713 28.1251 16.2502 28.1251C15.1158 28.1251 14.1807 27.9454 13.4705 27.5907C12.8979 27.304 12.6635 26.997 12.6049 26.9095C12.5527 26.8311 12.5188 26.742 12.5058 26.6487C12.4929 26.5554 12.5012 26.4604 12.5301 26.3708C12.559 26.2812 12.6078 26.1992 12.6729 26.1311C12.7379 26.063 12.8175 26.0105 12.9057 25.9775C12.926 25.9696 14.7994 25.2501 15.9893 23.8806C15.3294 23.3381 14.7534 22.701 14.2799 21.99C13.3112 20.5517 12.2268 18.0532 12.5612 14.3196C12.5718 14.201 12.616 14.0879 12.6888 13.9936C12.7615 13.8992 12.8597 13.8277 12.9718 13.7873C13.0838 13.7469 13.2051 13.7394 13.3213 13.7656C13.4374 13.7918 13.5437 13.8507 13.6276 13.9353C13.6549 13.9626 16.2276 16.5212 19.3729 17.3509V16.8751C19.3717 16.3762 19.4703 15.8821 19.663 15.4219C19.8557 14.9617 20.1385 14.5447 20.4948 14.1954C20.8408 13.8499 21.2525 13.5772 21.7056 13.3933C22.1587 13.2095 22.6441 13.1183 23.133 13.1251C23.7889 13.1316 24.432 13.3077 24.9997 13.6362C25.5674 13.9648 26.0405 14.4346 26.3729 15.0001H28.7502C28.8739 15 28.9948 15.0366 29.0977 15.1053C29.2006 15.174 29.2808 15.2716 29.3281 15.3859C29.3755 15.5001 29.3878 15.6259 29.3637 15.7472C29.3395 15.8685 29.2799 15.9799 29.1924 16.0673Z" fill="white" fill-opacity="0.8"/>
</svg>
